<?xml version="1.0" standalone="no"?>
<!DOCTYPE svg PUBLIC "-//W3C//DTD SVG 1.1//EN" "http://www.w3.org/Graphics/SVG/1.1/DTD/svg11.dtd" >
<svg xmlns="http://www.w3.org/2000/svg" xmlns:xlink="http://www.w3.org/1999/xlink" version="1.1">
<metadata></metadata>
<defs>
<font id="heebolight" horiz-adv-x="1136" >
<font-face units-per-em="2048" ascent="1638" descent="-410" />
<missing-glyph horiz-adv-x="499" />
<glyph horiz-adv-x="0" />
<glyph horiz-adv-x="682" />
<glyph unicode=" "  horiz-adv-x="499" />
<glyph unicode="&#x09;" horiz-adv-x="499" />
<glyph unicode="&#xa0;" horiz-adv-x="499" />
<glyph unicode="!" horiz-adv-x="462" d="M154 71q0 35 22.5 57.5t59.5 22.5q38 0 60.5 -22.5t22.5 -57.5q0 -34 -22.5 -57t-60.5 -23q-37 0 -59.5 22.5t-22.5 57.5zM167 1456h124l-7 -1050h-110z" />
<glyph unicode="&#x22;" horiz-adv-x="589" d="M143 1083l3 307v146h98v-139l-20 -314h-81zM379 1083l3 311v142h97v-139l-19 -314h-81z" />
<glyph unicode="#" horiz-adv-x="1191" d="M85 410v94h273l83 441h-280v95h298l78 416h100l-78 -416h314l78 416h100l-79 -416h229v-95h-247l-83 -441h255v-94h-273l-77 -410h-100l78 410h-314l-77 -410h-100l77 410h-255zM458 504h314l83 441h-314z" />
<glyph unicode="$" d="M116 419h119q0 -121 50.5 -196t128.5 -106.5t167 -31.5q98 0 171 36.5t111.5 98.5t38.5 139q0 75 -31 129.5t-101.5 98.5t-194.5 87q-137 44 -225 96.5t-135.5 131t-47.5 193.5q0 108 45.5 190.5t129.5 131.5t197 58v202h102v-202q176 -16 273 -131t97 -316h-119 q0 100 -35.5 177.5t-104 121.5t-164.5 44q-99 0 -167 -36.5t-101 -98.5t-33 -138q0 -77 27.5 -130.5t98.5 -98t203 -88.5q137 -46 223.5 -97.5t134 -129.5t47.5 -193q0 -110 -47 -192.5t-133 -130t-203 -57.5v-189h-102v188q-115 8 -209.5 54.5t-152.5 142t-58 242.5z" />
<glyph unicode="%" horiz-adv-x="1514" d="M110 1099v77q0 83 35.5 151.5t100 109t149.5 40.5t149.5 -40.5t100 -109t35.5 -151.5v-77q0 -82 -35 -150.5t-99.5 -108.5t-148.5 -40q-86 0 -151 40t-100.5 108.5t-35.5 150.5zM206 1099q0 -56 21.5 -104.5t64.5 -78t105 -29.5q60 0 102 29.5t63 78t21 104.5v77 q0 57 -21 105.5t-63.5 78.5t-103.5 30q-60 0 -103 -30t-64.5 -79t-21.5 -105v-77zM360 169l711 1138l75 -48l-711 -1138zM842 279v78q0 82 35.5 150.5t100 109t149.5 40.5t150 -40t100 -109t35 -151v-78q0 -82 -35 -150.5t-99.5 -109t-148.5 -40.5q-86 0 -151 40.5 t-100.5 109t-35.5 150.5zM939 279q0 -56 21 -104.5t64 -78.5t105 -30q60 0 102 29.5t63 78t21 105.5v78q0 59 -21 107.5t-63.5 77t-103.5 28.5q-60 0 -102.5 -29t-64 -77t-21.5 -107v-78z" />
<glyph unicode="&#x26;" horiz-adv-x="1261" d="M108 371q0 83 35.5 153.5t95.5 131t151 129.5l14 10q-84 103 -124.5 184t-40.5 166q0 101 41 176t116.5 115.5t176.5 40.5q95 0 165.5 -38.5t108 -104t37.5 -143.5q0 -89 -54 -164t-140 -141l-131 -101l400 -467q91 148 91 334h111q0 -249 -129 -419l200 -233h-145 l-126 146q-80 -79 -183.5 -122.5t-216.5 -43.5q-138 0 -240.5 49t-157.5 137.5t-55 204.5zM228 371q0 -79 37 -144.5t112 -105t184 -39.5q91 0 176 38t153 109l-406 472l-14 16l-47 -36q-115 -94 -155 -169.5t-40 -140.5zM359 1149q0 -64 34 -134.5t100 -152.5l132 99 q70 52 108 106.5t38 123.5q0 49 -23.5 91t-68 67.5t-106.5 25.5q-68 0 -116 -30.5t-73 -82t-25 -113.5z" />
<glyph unicode="'" horiz-adv-x="349" d="M120 1091l5 296v149h102v-140l-18 -305h-89z" />
<glyph unicode="(" horiz-adv-x="654" d="M141 574v15q0 246 67 461.5t171.5 366.5t213.5 216l29 -82q-92 -64 -175 -203.5t-134.5 -336t-51.5 -419.5v-20q0 -224 51.5 -420.5t134.5 -337t175 -207.5l-29 -77q-110 65 -214 213t-171 363.5t-67 467.5z" />
<glyph unicode=")" horiz-adv-x="668" d="M33 -393q92 65 175 205.5t134.5 338t51.5 421.5v20q0 222 -52.5 419.5t-136 338.5t-172.5 206l29 77q109 -65 213.5 -216t171.5 -366.5t67 -461.5v-15q0 -252 -67 -467.5t-171 -363.5t-214 -213z" />
<glyph unicode="*" horiz-adv-x="869" d="M29 1108l33 101l331 -122l-4 369h105l-9 -372l325 127l33 -102l-334 -114l224 -295l-86 -63l-214 306l-204 -304l-85 61l218 301z" />
<glyph unicode="+" horiz-adv-x="1156" d="M76 628v113h434v465h120v-465h444v-113h-444v-482h-120v482h-434z" />
<glyph unicode="," horiz-adv-x="393" d="M61 -221q48 65 70.5 127.5t22.5 139.5v143h118v-140q0 -92 -37.5 -177.5t-102.5 -144.5z" />
<glyph unicode="-" horiz-adv-x="586" d="M49 592v102h479v-102h-479z" />
<glyph unicode="." horiz-adv-x="489" d="M146 73q0 36 22.5 59.5t61.5 23.5t62.5 -23.5t23.5 -59.5q0 -35 -23.5 -58.5t-62.5 -23.5t-61.5 23t-22.5 59z" />
<glyph unicode="/" horiz-adv-x="814" d="M30 -125l608 1581h109l-608 -1581h-109z" />
<glyph unicode="0" d="M120 608v245q0 313 116.5 468.5t330.5 155.5q216 0 332 -155t116 -469v-245q0 -315 -115 -471.5t-331 -156.5q-214 0 -331.5 157t-117.5 471zM240 594q0 -247 84 -379.5t245 -132.5q163 0 245 131.5t82 380.5v274q0 250 -82.5 378.5t-246.5 128.5q-162 0 -244.5 -128.5 t-82.5 -378.5v-274z" />
<glyph unicode="1" d="M179 1165v112l495 185h20v-1462h-120v1312z" />
<glyph unicode="2" d="M105 1036q0 121 54.5 221.5t156 159.5t237.5 59q130 0 225.5 -46.5t147 -134.5t51.5 -209q0 -120 -76 -247t-210 -279l-407 -458h766v-102h-913v93l477 540q134 152 188.5 251.5t54.5 190.5q0 89 -35.5 156.5t-104 105t-164.5 37.5q-100 0 -174 -43.5t-114 -120 t-40 -174.5h-120z" />
<glyph unicode="3" d="M99 395h120q0 -91 44 -162.5t122.5 -111t179.5 -39.5q156 0 242 80.5t86 229.5q0 152 -98 225.5t-270 73.5h-121v79v24h121q108 0 185 37.5t116.5 101.5t39.5 144q0 137 -77 217t-229 80q-92 0 -164.5 -36.5t-114 -104.5t-41.5 -159h-119q0 116 57 207.5t157 143 t225 51.5q128 0 224 -47.5t148.5 -138t52.5 -217.5q0 -66 -28.5 -130t-85 -115.5t-135.5 -81.5q139 -38 207.5 -130.5t68.5 -219.5q0 -129 -57.5 -223t-159 -143.5t-230.5 -49.5q-122 0 -228.5 47.5t-172 141t-65.5 226.5z" />
<glyph unicode="4" d="M68 368v69l673 1019h100h31v-986h227v-102h-227v-368h-120v368h-684zM215 470h537v832l-53 -93z" />
<glyph unicode="5" d="M168 383h115q16 -147 100.5 -224t227.5 -77q154 0 235 98.5t81 281.5q0 104 -39 186.5t-114.5 129.5t-179.5 47q-97 0 -159.5 -26t-121.5 -79l-94 27l71 709h728v-111h-625l-52 -492q44 32 117.5 56.5t156.5 24.5q129 0 227 -57t151.5 -163.5t53.5 -249.5 q0 -144 -47 -252.5t-144.5 -170t-244.5 -61.5q-118 0 -214 44.5t-156.5 135.5t-72.5 223z" />
<glyph unicode="6" d="M130 515v128q0 253 77 437.5t233 285.5t386 101h18v-104h-18q-172 0 -297 -70t-195 -200.5t-82 -310.5q60 83 154.5 128.5t207.5 45.5q134 0 229 -64.5t142.5 -173t47.5 -240.5q0 -141 -52.5 -254t-150 -178.5t-228.5 -65.5q-142 0 -249.5 71.5t-165 194t-57.5 269.5z M250 513q0 -131 46.5 -229t126.5 -150t179 -52q95 0 165.5 52t108.5 141.5t38 197.5q0 106 -36 192.5t-107.5 137.5t-175.5 51q-77 0 -148.5 -31.5t-123.5 -86.5t-73 -122v-101z" />
<glyph unicode="7" d="M77 1354v102h957v-68l-622 -1388h-124l617 1354h-828z" />
<glyph unicode="8" d="M106 386q0 126 74 222.5t199 139.5q-109 43 -172 131.5t-63 202.5q0 123 54.5 212t150.5 135.5t219 46.5q122 0 219 -46.5t152.5 -135.5t55.5 -212q0 -114 -64.5 -202t-173.5 -132q126 -44 201 -140t75 -222q0 -129 -60.5 -220.5t-165.5 -138.5t-237 -47q-133 0 -238 47 t-165.5 138.5t-60.5 220.5zM226 386q0 -96 43.5 -164.5t121 -104t179.5 -35.5q101 0 178.5 35.5t121 104.5t43.5 164q0 91 -45 161.5t-123.5 109.5t-176.5 39q-99 0 -177 -39t-121.5 -109t-43.5 -162zM263 1082q0 -85 39 -149.5t108.5 -99.5t158.5 -35q88 0 158 35 t109.5 99.5t39.5 149.5q0 84 -40.5 150.5t-110.5 104t-157 37.5q-88 0 -157.5 -35.5t-108.5 -101.5t-39 -155z" />
<glyph unicode="9" d="M102 965q0 141 53 257.5t152.5 185t233.5 68.5q153 0 257 -73t155.5 -204t51.5 -304v-116q0 -790 -677 -790h-26l1 104h25q545 0 557 582q-61 -91 -157 -144.5t-209 -53.5q-131 0 -225 68t-143 180t-49 240zM220 970q0 -102 37 -191.5t108 -144t169 -54.5q87 0 158.5 36 t120 94.5t72.5 126.5v70q0 150 -43 254.5t-120 158t-178 53.5q-98 0 -171.5 -55t-113 -147t-39.5 -201z" />
<glyph unicode=":" horiz-adv-x="430" d="M127 0zM127 73q0 36 22.5 59.5t61.5 23.5t62.5 -23.5t23.5 -59.5q0 -35 -23.5 -58.5t-62.5 -23.5t-61.5 23t-22.5 59zM129 996q0 36 22.5 59.5t61.5 23.5t62.5 -23.5t23.5 -59.5q0 -35 -23.5 -58.5t-62.5 -23.5t-61.5 23t-22.5 59z" />
<glyph unicode=";" horiz-adv-x="399" d="M61 0zM61 -221q48 65 70.5 127.5t22.5 139.5v143h118v-140q0 -92 -37.5 -177.5t-102.5 -144.5zM118 996q0 36 22.5 59.5t61.5 23.5t62.5 -23.5t23.5 -59.5q0 -35 -23.5 -58.5t-62.5 -23.5t-61.5 23t-22.5 59z" />
<glyph unicode="&#x3c;" horiz-adv-x="1047" d="M77 609v78v18l828 378v-125l-696 -302l696 -300v-126z" />
<glyph unicode="=" horiz-adv-x="1133" d="M150 418v106h834v-106h-834zM150 829v106h834v-106h-834z" />
<glyph unicode="&#x3e;" horiz-adv-x="1062" d="M124 232v124l711 304l-711 302v124l845 -378v-79v-18z" />
<glyph unicode="?" horiz-adv-x="930" d="M84 1116q1 111 53 192.5t139.5 124.5t195.5 43q117 0 201 -46.5t127.5 -131t43.5 -195.5q0 -85 -29 -156.5t-79 -133t-128 -132.5q-60 -52 -86 -121t-26 -155h-120q1 85 16.5 143.5t50 107.5t98.5 111q72 71 105.5 110.5t55.5 94t22 130.5q0 123 -65 195.5t-187 72.5 q-77 0 -137.5 -30.5t-95 -88t-35.5 -135.5h-120zM360 71q0 35 22.5 57.5t59.5 22.5q38 0 60.5 -22.5t22.5 -57.5q0 -34 -22.5 -57t-60.5 -23q-37 0 -59.5 22.5t-22.5 57.5z" />
<glyph unicode="@" horiz-adv-x="1871" d="M121 416q0 41 1 62q12 279 122.5 492.5t301.5 332t439 118.5q251 0 423 -101.5t258 -290t86 -449.5q0 -44 -1 -67q-5 -135 -47.5 -256.5t-128.5 -199t-213 -77.5q-96 0 -157.5 51.5t-81.5 144.5q-53 -96 -130 -146t-169 -50q-84 0 -143.5 45t-90 128t-30.5 195q0 25 4 79 q15 168 77 295.5t156 197t202 69.5q63 0 110 -14t80.5 -35.5t78.5 -58.5l-50 -570q-2 -32 -2 -45q0 -115 48 -157.5t110 -42.5q86 0 148 58t96.5 159t39.5 230q2 54 2 80q0 352 -168 543t-511 191q-213 0 -381 -105t-267 -297.5t-111 -446.5q-2 -44 -2 -65 q0 -232 80.5 -407.5t234.5 -272.5t368 -97q89 0 179 21.5t152 57.5l30 -79q-64 -42 -166.5 -65.5t-198.5 -23.5q-242 0 -417 105t-268 300.5t-93 463.5zM667 347q0 -125 46 -197t133 -72q82 0 154 58.5t119 196.5l45 515q-67 50 -159 50q-82 0 -152.5 -52.5t-118.5 -158.5 t-63 -260q-4 -37 -4 -80z" />
<glyph unicode="A" horiz-adv-x="1280" d="M31 0l550 1456h90h27l551 -1456h-128l-150 408h-662l-150 -408h-128zM348 513h584l-292 793z" />
<glyph unicode="B" horiz-adv-x="1255" d="M185 0v1456h430q228 0 351.5 -93.5t123.5 -286.5q0 -112 -61 -196t-169 -120q85 -18 149 -68.5t99 -124t35 -157.5q0 -130 -58 -222.5t-163 -140t-245 -47.5h-440h-52zM308 104h369q106 0 183 36.5t118 105t41 162.5q0 85 -36.5 151t-111.5 104t-185 38h-378v-597z M308 804h319q163 0 251 70t88 204q0 139 -87.5 206t-263.5 67h-307v-547z" />
<glyph unicode="C" horiz-adv-x="1330" d="M132 637v182q0 196 68 344.5t194 230.5t294 82q154 0 267 -56t179 -162.5t81 -256.5h-123q-47 370 -404 370q-133 0 -231 -68.5t-150 -192.5t-52 -289v-184q0 -161 50 -286.5t146 -196t229 -70.5q190 0 289 91.5t123 278.5h123q-23 -225 -160.5 -349.5t-374.5 -124.5 q-164 0 -288 82t-192 231t-68 344z" />
<glyph unicode="D" horiz-adv-x="1342" d="M185 0v1456h123h284q180 0 321.5 -82t220.5 -232.5t79 -346.5v-134q0 -197 -79 -347t-222 -232t-329 -82h-330h-68zM308 104h275q154 0 269 70t177 196t62 291v136q0 166 -62 291.5t-175 194t-262 68.5h-284v-1247z" />
<glyph unicode="E" horiz-adv-x="1165" d="M185 0v1456h123h777v-105h-777v-548h680v-105h-680v-594h782v-104h-819h-86z" />
<glyph unicode="F" horiz-adv-x="1152" d="M185 0v1456h123h779v-105h-779v-565h678v-106h-678v-680h-123z" />
<glyph unicode="G" horiz-adv-x="1401" d="M145 645v177q0 199 68.5 346.5t196 227.5t300.5 80q157 0 269 -55t175.5 -152t79.5 -223h-123q-24 145 -120.5 235t-280.5 90q-140 0 -239 -68t-150.5 -191t-51.5 -288v-179q0 -168 57 -295t161.5 -196.5t242.5 -69.5q103 0 181.5 20t128 48.5t73.5 58.5v376h-391v105 h513v-518q-31 -44 -93.5 -88t-167 -75t-245.5 -31q-171 0 -303.5 81.5t-206.5 232.5t-74 351z" />
<glyph unicode="H" horiz-adv-x="1449" d="M185 0v1456h123v-653h832v653h123v-1456h-123v698h-832v-698h-123z" />
<glyph unicode="I" horiz-adv-x="546" d="M212 0v1456h123v-1456h-123z" />
<glyph unicode="J" horiz-adv-x="1128" d="M72 402h123q0 -156 82.5 -237t233.5 -81q90 0 162 40.5t113.5 119t41.5 190.5v1022h123v-1022q0 -143 -56.5 -245.5t-156 -155.5t-227.5 -53q-133 0 -231.5 46.5t-153 141t-54.5 234.5z" />
<glyph unicode="K" horiz-adv-x="1292" d="M185 0v1456h123v-783l198 206l547 577h155l-610 -647l658 -809h-150l-593 723l-205 -201v-522h-123z" />
<glyph unicode="L" horiz-adv-x="1080" d="M185 0v1456h124v-1352h718v-104h-755h-87z" />
<glyph unicode="M" horiz-adv-x="1772" d="M185 0v1456h109h53l538 -1284l538 1284h164v-1456h-123v637l11 647l-543 -1284h-95l-540 1280l11 -643v-637h-123z" />
<glyph unicode="N" horiz-adv-x="1455" d="M185 0v1456h124l837 -1246v1246h123v-1456h-124l-836 1246v-1246h-124z" />
<glyph unicode="O" horiz-adv-x="1387" d="M126 650v156q0 201 70.5 353t199 234.5t296.5 82.5q171 0 299.5 -82.5t198.5 -234t70 -353.5v-156q0 -202 -69.5 -353.5t-197.5 -234t-299 -82.5q-168 0 -297 82.5t-200 234.5t-71 353zM249 650q0 -172 54 -298.5t154.5 -195t236.5 -68.5q140 0 240 68t152 194.5 t52 299.5v158q0 172 -53 298t-153.5 194t-239.5 68q-136 0 -236 -68t-153.5 -194.5t-53.5 -297.5v-158z" />
<glyph unicode="P" horiz-adv-x="1261" d="M185 0v1456h496q157 0 267 -54.5t166.5 -152t56.5 -227.5q0 -135 -56 -231t-166 -147t-268 -51h-373v-593h-123zM308 698h373q185 0 276 88.5t91 233.5q0 93 -39 167.5t-121.5 119t-206.5 44.5h-373v-653z" />
<glyph unicode="Q" horiz-adv-x="1387" d="M121 650v156q0 201 70.5 353t199 234.5t297.5 82.5q171 0 299.5 -82.5t198.5 -234t70 -353.5v-156q0 -209 -73.5 -363.5t-208.5 -233.5l265 -231l-85 -77l-296 258q-80 -23 -168 -23q-169 0 -298 82.5t-200 234.5t-71 353zM245 650q0 -172 54 -298.5t154.5 -195 t236.5 -68.5q139 0 239 68t152 194.5t52 299.5v158q0 172 -52.5 298t-153 194t-239.5 68q-136 0 -236 -68t-153.5 -194.5t-53.5 -297.5v-158z" />
<glyph unicode="R" horiz-adv-x="1301" d="M182 0v1456h473q152 0 263 -49.5t171 -146t60 -233.5q0 -95 -37.5 -175t-106 -136.5t-158.5 -82.5l365 -620v-13h-132l-351 607h-424v-607h-123zM305 711h377q110 0 187.5 43.5t117 115.5t39.5 157q0 100 -43 173t-126 112t-202 39h-350v-640z" />
<glyph unicode="S" horiz-adv-x="1213" d="M88 416h124q0 -116 60.5 -190.5t156 -108t203.5 -33.5q113 0 198.5 34t132 96.5t46.5 143.5q0 82 -37 138.5t-122.5 101t-238.5 87.5q-158 44 -261 96.5t-159 130t-56 188.5t62 196t173.5 132.5t253.5 47.5q149 0 262.5 -57.5t175 -156.5t61.5 -221h-123q0 95 -45 170 t-130 117.5t-201 42.5t-198.5 -36t-124.5 -96.5t-42 -135.5q0 -72 37 -126.5t122 -99.5t231 -84q163 -44 268 -100t160.5 -137t55.5 -196q0 -116 -64 -202t-178 -132t-259 -46q-138 0 -262 47t-203 145t-79 244z" />
<glyph unicode="T" horiz-adv-x="1223" d="M52 1351v105h621h499v-105h-499v-1351h-122v1351h-499z" />
<glyph unicode="U" horiz-adv-x="1347" d="M163 470v986h122v-986q0 -124 49.5 -211t137.5 -131t202 -44q115 0 203 44t137.5 131t49.5 211v986h123v-986q0 -159 -67.5 -269t-184 -165.5t-261.5 -55.5q-148 0 -263.5 55t-181.5 165.5t-66 269.5z" />
<glyph unicode="V" horiz-adv-x="1264" d="M32 1456h134l457 -1275l9 -31l8 31l459 1275h134l-542 -1456h-100h-18z" />
<glyph unicode="W" horiz-adv-x="1836" d="M61 1456h126l266 -1063l46 -226l55 217l316 1072h99h12l311 -1072l55 -218l47 228l263 1062h126l-372 -1456h-99h-19l-331 1139l-36 145l-37 -145l-337 -1139h-95h-23z" />
<glyph unicode="X" horiz-adv-x="1254" d="M56 0l497 739l-482 717h147l410 -616l409 616h147l-482 -717l497 -739h-147l-424 636l-426 -636h-146z" />
<glyph unicode="Y" horiz-adv-x="1227" d="M24 1456h146l441 -794l445 794h143l-526 -907v-549h-123v549z" />
<glyph unicode="Z" horiz-adv-x="1225" d="M90 0v93l865 1259h-838v104h935h54v-88l-866 -1264h898v-104h-1003h-45z" />
<glyph unicode="[" horiz-adv-x="491" d="M164 -312v1976h330v-102h-210v-1772h210v-102h-330z" />
<glyph unicode="\" horiz-adv-x="807" d="M49 1456h117l608 -1581h-117z" />
<glyph unicode="]" horiz-adv-x="491" d="M1 -210h210v1772h-210v102h330v-1976h-330v102z" />
<glyph unicode="^" horiz-adv-x="853" d="M78 729l299 727h79h10l299 -727h-116l-228 570l-228 -570h-115z" />
<glyph unicode="_" horiz-adv-x="885" d="M2 0h881v-102h-881v102z" />
<glyph unicode="`" horiz-adv-x="585" d="M103 1536h145l191 -279h-109z" />
<glyph unicode="a" horiz-adv-x="1098" d="M101 287q0 105 59.5 182.5t171 119t262.5 41.5h221v122q0 117 -72.5 183.5t-206.5 66.5q-82 0 -148.5 -29.5t-104 -79.5t-37.5 -110l-120 1q0 81 53 154.5t148 118.5t214 45q117 0 206 -39.5t138.5 -118.5t49.5 -194v-523q0 -60 8.5 -119t24.5 -95v-13h-128 q-19 53 -24 151q-59 -76 -152.5 -123.5t-213.5 -47.5q-104 0 -183 39.5t-122.5 109.5t-43.5 158zM220 297q0 -59 30 -107t85 -76t128 -28q125 0 218 59.5t134 153.5v239h-205q-122 0 -209.5 -29t-134 -83t-46.5 -129z" />
<glyph unicode="b" horiz-adv-x="1135" d="M155 0v1536h120v-610q55 85 139.5 130.5t198.5 45.5q130 0 223.5 -67.5t142.5 -191.5t49 -292v-21q0 -162 -49 -286.5t-142.5 -194t-221.5 -69.5q-116 0 -201.5 44t-140.5 125l-6 -149h-112zM275 288q41 -92 120 -148t197 -56q105 0 176 57.5t105 158t34 230.5v21 q0 201 -78.5 324t-238.5 123q-124 0 -200 -61.5t-115 -159.5v-489z" />
<glyph unicode="c" horiz-adv-x="1056" d="M95 520v42q0 154 53 276.5t157 193t250 70.5q116 0 209 -47t148 -134.5t60 -202.5h-114q-5 86 -45.5 149.5t-108 98t-149.5 34.5q-117 0 -193.5 -59.5t-112 -158.5t-35.5 -220v-42q0 -122 35 -220.5t112 -158t196 -59.5q77 0 143.5 29.5t109 86.5t48.5 137h114 q-5 -101 -62 -182.5t-150.5 -127t-202.5 -45.5q-148 0 -252 70.5t-157 192.5t-53 277z" />
<glyph unicode="d" horiz-adv-x="1138" d="M109 530v21q0 167 50.5 291.5t145 192t221.5 67.5q112 0 195.5 -44.5t138.5 -126.5v605h120v-1536h-112l-6 145q-55 -79 -139.5 -122t-198.5 -43q-125 0 -219 69.5t-145 194.5t-51 286zM229 530q0 -129 35 -230t106 -158.5t177 -57.5q115 0 192.5 52.5t120.5 142.5v510 q-40 93 -115 151t-196 58q-106 0 -178 -58t-107 -158.5t-35 -230.5v-21z" />
<glyph unicode="e" horiz-adv-x="1059" d="M90 511v43q0 162 63.5 287t170 193t230.5 68q134 0 231 -63t147 -175t50 -257v-73h-772v-23q0 -119 47 -217.5t131 -155.5t192 -57q97 0 171 35.5t132 112.5l76 -57q-59 -87 -153.5 -139.5t-230.5 -52.5q-139 0 -249.5 68t-173 189t-62.5 274zM215 636h647v13 q-2 94 -37.5 174t-104.5 128.5t-166 48.5q-90 0 -162.5 -45t-118.5 -127.5t-58 -191.5z" />
<glyph unicode="f" horiz-adv-x="678" d="M63 984v98h180v135q0 163 84.5 251.5t234.5 88.5q68 0 128 -17l-9 -100q-50 12 -110 12q-98 0 -153.5 -61.5t-55.5 -173.5v-135h259v-98h-259v-984h-119v984h-180z" />
<glyph unicode="g" horiz-adv-x="1137" d="M109 530v21q0 167 50 291.5t144 192t223 67.5q114 0 198 -45.5t139 -130.5l5 156h112v-1063q0 -139 -53.5 -241t-151.5 -156t-229 -54q-107 0 -210.5 48t-166.5 137l67 73q64 -80 139 -118t164 -38q153 0 237 91t84 254v126q-56 -77 -140 -119t-196 -42q-126 0 -220 69.5 t-144.5 194.5t-50.5 286zM229 530q0 -129 35 -230t106 -158.5t177 -57.5q117 0 194 53.5t119 146.5v500q-38 95 -113.5 154.5t-197.5 59.5q-106 0 -178 -58t-107 -158.5t-35 -230.5v-21z" />
<glyph unicode="h" horiz-adv-x="1125" d="M156 0v1536h120v-635q58 94 149 147.5t203 53.5q168 0 256.5 -95t88.5 -302v-705h-120v705q0 160 -65 227t-190 67q-117 0 -200 -73.5t-122 -182.5v-743h-120z" />
<glyph unicode="i" horiz-adv-x="460" d="M149 1395q0 35 22.5 58t59.5 23q38 0 60.5 -23t22.5 -58q0 -34 -22.5 -56.5t-60.5 -22.5q-37 0 -59.5 22.5t-22.5 56.5zM171 0v1082h119v-1082h-119z" />
<glyph unicode="j" horiz-adv-x="468" d="M-104 -418l1 99q48 -14 90 -14q87 0 133 51.5t46 152.5v1211h120v-1211q0 -149 -73 -228.5t-211 -79.5q-26 0 -54.5 5t-51.5 14zM145 1395q0 35 22.5 58t59.5 23t60 -23t23 -58q0 -34 -23 -56.5t-60 -22.5t-59.5 22.5t-22.5 56.5z" />
<glyph unicode="k" horiz-adv-x="1004" d="M157 0v1536h119v-982l113 122l415 406h151l-459 -456l499 -626h-144l-438 545l-137 -131v-414h-119z" />
<glyph unicode="l" horiz-adv-x="460" d="M171 0v1536h119v-1536h-119z" />
<glyph unicode="m" horiz-adv-x="1816" d="M150 0v1082h116l3 -175q56 92 145.5 143.5t205.5 51.5q123 0 206 -51t118 -158q54 95 149.5 152t220.5 57q174 0 264 -96t90 -301v-705h-119v706q0 161 -67.5 227t-192.5 66q-96 0 -166.5 -42.5t-109.5 -107.5t-45 -133v-716h-120v716q0 153 -68.5 218t-194.5 65 t-203.5 -72t-111.5 -183v-744h-120z" />
<glyph unicode="n" horiz-adv-x="1126" d="M156 0v1082h115l4 -183q58 95 149 149t204 54q168 0 256.5 -95t88.5 -302v-705h-120v705q0 160 -65 227t-190 67q-117 0 -200 -73.5t-122 -182.5v-743h-120z" />
<glyph unicode="o" horiz-adv-x="1148" d="M91 525v32q0 157 60 281t169.5 194t252.5 70q144 0 254 -70t170 -194t60 -281v-32q0 -157 -60 -281t-169 -194t-253 -70t-254 70t-170 194t-60 281zM211 525q0 -121 42.5 -222t125 -161t196.5 -60q113 0 195 60t124.5 161t42.5 222v32q0 119 -43 220t-125.5 162 t-195.5 61t-195 -61t-124.5 -162t-42.5 -220v-32z" />
<glyph unicode="p" horiz-adv-x="1135" d="M155 -416v1498h112l6 -153q56 84 141 128.5t198 44.5q130 0 223.5 -67.5t142.5 -191.5t49 -292v-21q0 -162 -49 -286.5t-142.5 -194t-221.5 -69.5q-112 0 -197.5 41t-141.5 116v-553h-120zM275 271q43 -88 120 -138.5t192 -50.5q106 0 177.5 58t107 159.5t35.5 230.5v21 q0 129 -35.5 230t-107.5 159t-179 58q-120 0 -195 -57t-115 -149v-521z" />
<glyph unicode="q" horiz-adv-x="1143" d="M109 530v21q0 168 50 292t144.5 191.5t224.5 67.5q111 0 194.5 -43t139.5 -123l5 146h112v-1498h-119v550q-56 -74 -140 -114t-194 -40q-129 0 -223 69.5t-144 194t-50 286.5zM229 530q0 -129 35.5 -230.5t107 -159.5t177.5 -58q113 0 190 50t121 137v529 q-42 89 -118 145.5t-191 56.5q-106 0 -178.5 -58.5t-108 -160t-35.5 -230.5v-21z" />
<glyph unicode="r" horiz-adv-x="690" d="M156 0v1082h117l3 -170q45 90 121.5 140t182.5 50q21 0 44 -3.5t36 -8.5l-4 -109q-46 7 -80 7q-117 0 -193 -65t-107 -177v-746h-120z" />
<glyph unicode="s" horiz-adv-x="1038" d="M102 304h119q8 -117 96.5 -169.5t208.5 -52.5q88 0 151 27t95.5 71t32.5 96q0 77 -62 135t-228 93q-128 27 -209.5 64t-124.5 95t-43 145q0 81 47 148t133.5 106.5t200.5 39.5q123 0 213.5 -41.5t138.5 -115t48 -166.5h-121q0 57 -33 108t-96.5 82t-149.5 31 q-89 0 -147.5 -27t-86.5 -70t-28 -91q0 -52 22.5 -88t85.5 -66t181 -57q134 -31 216.5 -72.5t122.5 -101t40 -145.5q0 -88 -49.5 -157t-140 -107t-209.5 -38q-132 0 -228 44.5t-146 119t-50 160.5z" />
<glyph unicode="t" horiz-adv-x="659" d="M24 984v98h198v278h121v-278h223v-98h-223v-720q0 -104 37.5 -141.5t102.5 -37.5q36 0 98 11l5 -100q-21 -7 -56.5 -11.5t-71.5 -4.5q-112 0 -174 65t-62 219v720h-198z" />
<glyph unicode="u" horiz-adv-x="1125" d="M152 390v692h120v-694q0 -162 68.5 -233t181.5 -71q136 0 216.5 57.5t111.5 156.5v784h120v-1082h-115l-3 137q-107 -157 -344 -157q-168 0 -262 98.5t-94 311.5z" />
<glyph unicode="v" horiz-adv-x="985" d="M38 1082h124l332 -917l328 917h124l-405 -1082h-88h-9z" />
<glyph unicode="w" horiz-adv-x="1545" d="M63 1082h123l230 -833l17 -92l24 97l260 828h86h17l256 -821l29 -113l22 104l223 830h124l-315 -1082h-86h-16l-279 859l-12 59l-14 -60l-273 -858h-84h-18z" />
<glyph unicode="x" horiz-adv-x="997" d="M48 0l383 551l-367 531h141l291 -438l293 438h142l-367 -531l382 -551h-140l-309 458l-307 -458h-142z" />
<glyph unicode="y" horiz-adv-x="974" d="M33 1082h130l337 -909l315 909h129l-458 -1256q-26 -70 -58.5 -125t-93 -96.5t-151.5 -41.5q-19 0 -48.5 4t-43.5 9v100q10 -3 29.5 -5t31.5 -2q94 0 147.5 47.5t88.5 148.5l53 144z" />
<glyph unicode="z" horiz-adv-x="997" d="M88 0v89l655 890h-635v103h733h53v-88l-657 -892h702v-102h-808h-43z" />
<glyph unicode="{" horiz-adv-x="677" d="M69 543v82v23q118 0 174.5 67.5t56.5 189.5v227q0 171 77.5 291t259.5 174l27 -79q-128 -40 -186.5 -140.5t-58.5 -245.5v-227q0 -110 -44.5 -191t-137.5 -119q92 -38 137 -119.5t45 -190.5v-226q0 -144 59.5 -242.5t188.5 -141.5l-30 -80q-182 54 -259.5 173.5 t-77.5 290.5v226q0 123 -56.5 190.5t-174.5 67.5z" />
<glyph unicode="|" horiz-adv-x="453" d="M178 -270v1726h102v-1726h-102z" />
<glyph unicode="}" horiz-adv-x="677" d="M10 -325q127 43 187 142t60 242v226q0 112 47.5 193.5t145.5 116.5q-98 35 -145.5 116.5t-47.5 193.5v227q0 145 -58.5 245.5t-185.5 140.5l26 79q183 -54 260 -173.5t77 -291.5v-227q0 -122 56.5 -189.5t174.5 -67.5v-77v-28q-118 0 -174.5 -67.5t-56.5 -190.5v-226 q0 -172 -77 -291t-260 -173z" />
<glyph unicode="~" horiz-adv-x="1403" d="M146 449q0 95 35 172.5t102 122t158 44.5q83 0 148.5 -34.5t150.5 -110.5q68 -62 115.5 -87.5t102.5 -25.5q90 0 141 63.5t51 171.5h105q0 -93 -36 -171t-103.5 -124.5t-157.5 -46.5q-57 0 -104.5 16t-91 46.5t-102.5 82.5q-68 62 -115 87.5t-104 25.5q-89 0 -138 -60 t-49 -171z" />
<glyph unicode="&#xa1;" horiz-adv-x="453" d="M141 1023q0 34 22.5 56.5t60.5 22.5q37 0 59.5 -22.5t22.5 -56.5q0 -35 -22.5 -58t-59.5 -23q-38 0 -60.5 23t-22.5 58zM168 -360l7 1050h111l6 -1050h-124z" />
<glyph unicode="&#xa2;" horiz-adv-x="1115" d="M120 520v42q0 143 45.5 259t135 189t216.5 88v220h120v-219q101 -12 181 -61.5t127.5 -132t51.5 -187.5h-114q-5 86 -46 149.5t-108 98t-149 34.5q-117 0 -193.5 -59.5t-112 -158.5t-35.5 -220v-42q0 -122 35 -220.5t111.5 -158t195.5 -59.5q77 0 144 29.5t109.5 86.5 t48.5 137h114q-4 -92 -53 -168.5t-129.5 -124.5t-177.5 -59v-228h-120v229q-127 15 -216.5 88t-135 189t-45.5 259z" />
<glyph unicode="&#xa3;" horiz-adv-x="1170" d="M93 645v105h185l-9 289q0 136 51 234.5t142.5 150.5t211.5 52q123 0 211.5 -48.5t135 -136.5t46.5 -203h-122q0 97 -37.5 160.5t-100.5 93.5t-141 30q-82 0 -143.5 -39t-96 -114t-34.5 -180l9 -289h345v-105h-341l9 -277q1 -84 -15.5 -151.5t-49.5 -112.5h745v-104h-997 v104h99q48 14 72 93.5t22 170.5l-9 277h-188z" />
<glyph unicode="&#xa4;" horiz-adv-x="1481" d="M110 60l158 162q-59 80 -91 179t-32 207q0 114 34.5 215t98.5 183l-168 172l85 86l166 -170q79 67 176 103.5t203 36.5q107 0 204.5 -36.5t175.5 -104.5l169 172l87 -87l-172 -175q63 -81 97 -182t34 -213q0 -107 -31.5 -204.5t-89.5 -178.5l162 -165l-87 -87l-157 160 q-80 -73 -180.5 -113t-211.5 -40q-110 0 -210.5 40t-180.5 112l-154 -158zM258 608q0 -141 65 -259.5t176 -188t241 -69.5t240.5 69.5t175.5 188t65 259.5q0 140 -65 258.5t-175.5 187.5t-240.5 69t-241 -69t-176 -187.5t-65 -258.5z" />
<glyph unicode="&#xa5;" horiz-adv-x="1057" d="M24 1456h139l365 -725l365 725h137l-398 -750h313v-89h-358v-204h358v-89h-358v-324h-124v324h-354v89h354v204h-354v89h314z" />
<glyph unicode="&#xa6;" horiz-adv-x="445" d="M160 -270v771h120v-771h-120zM160 698v758h120v-758h-120z" />
<glyph unicode="&#xa7;" horiz-adv-x="1240" d="M103 -64l120 2q0 -119 55.5 -193t142.5 -106t185 -32q109 0 188 32.5t120 89.5t41 130q0 71 -32 119.5t-111.5 88t-226.5 80.5q-159 40 -261.5 89t-158.5 125t-56 190q0 98 58.5 169.5t164.5 104.5q-89 50 -133.5 120.5t-44.5 174.5q0 107 58 187.5t164 124.5t248 44 q148 0 254 -50t162.5 -146.5t56.5 -234.5h-119q0 92 -41.5 167t-121.5 119t-191 44q-117 0 -195.5 -33.5t-116.5 -90.5t-38 -128q0 -77 31 -125.5t109 -86.5t232 -82q165 -44 265 -90.5t154.5 -120t54.5 -187.5q0 -97 -61 -168t-171 -104q94 -49 140.5 -119.5t46.5 -178.5 q0 -111 -57.5 -191t-163.5 -122.5t-248 -42.5q-134 0 -247.5 42.5t-184.5 139t-71 249.5zM229 553q0 -80 33 -128.5t117 -87.5t251 -86q70 -19 125 -37q115 14 180 72.5t65 141.5q0 74 -36.5 124t-123 91t-244.5 87q-76 19 -141 42q-112 -14 -169 -73t-57 -146z" />
<glyph unicode="&#xa8;" horiz-adv-x="881" d="M138 1397q0 35 22 57.5t60 22.5t60.5 -22.5t22.5 -57.5q0 -34 -22.5 -57t-60.5 -23t-60 22.5t-22 57.5zM575 1396q0 35 22.5 58t59.5 23q38 0 60.5 -23t22.5 -58t-22.5 -57t-60.5 -22q-37 0 -59.5 22.5t-22.5 56.5z" />
<glyph unicode="&#xa9;" horiz-adv-x="1638" d="M107 729q0 207 95.5 378.5t258.5 270t356 98.5q194 0 356.5 -98.5t258 -269.5t95.5 -379t-95.5 -379.5t-258.5 -271t-356 -99.5t-356 99.5t-258.5 271t-95.5 379.5zM193 729q0 -183 84 -335t227.5 -240t312.5 -88t312.5 88t227.5 240t84 335t-84 334.5t-227.5 239 t-312.5 87.5t-312.5 -87.5t-227.5 -239t-84 -334.5zM474 680v97q0 114 41 201.5t116.5 136.5t175.5 49q148 0 232 -80t84 -233h-99q0 223 -217 223q-73 0 -125.5 -38.5t-80 -105.5t-27.5 -152v-98q0 -86 27.5 -153t80 -105t125.5 -38q107 0 161.5 54t54.5 169h99 q0 -154 -83.5 -234t-231.5 -80q-100 0 -175.5 48.5t-116.5 136.5t-41 202z" />
<glyph unicode="&#xaa;" horiz-adv-x="907" d="M158 909q0 111 84.5 171.5t244.5 60.5h139v60q0 86 -41 132.5t-121 46.5q-91 0 -141.5 -36t-50.5 -107l-108 6q0 67 37.5 120t105.5 83t157 30q124 0 197.5 -71t73.5 -205v-314q0 -97 26 -181h-112q-15 48 -20 95q-36 -48 -93 -78.5t-129 -30.5q-119 0 -184 59t-65 159z M266 913q0 -59 39.5 -92.5t121.5 -33.5q57 0 114.5 31.5t84.5 72.5v167h-138q-109 0 -165.5 -37.5t-56.5 -107.5z" />
<glyph unicode="&#xab;" horiz-adv-x="933" d="M123 148zM123 527v13v6l295 379h106l-276 -389l276 -388h-106zM432 527v13v6l295 379h106l-276 -389l276 -388h-106z" />
<glyph unicode="&#xac;" horiz-adv-x="1118" d="M125 670v106h812v-106v-284h-120v284h-692z" />
<glyph unicode="&#xad;" horiz-adv-x="600" d="M49 592v102h479v-102h-479zM49 592z" />
<glyph unicode="&#xae;" horiz-adv-x="1642" d="M103 729q0 208 95.5 379t258 269.5t356.5 98.5q193 0 355.5 -98.5t258 -269.5t95.5 -379t-95.5 -379.5t-258 -271t-355.5 -99.5q-194 0 -356.5 99.5t-258 271t-95.5 379.5zM188 729q0 -183 84 -335t227.5 -240t313.5 -88q169 0 312.5 88t227.5 240t84 335t-84 334.5 t-227.5 239t-312.5 87.5q-170 0 -313.5 -87.5t-227.5 -239t-84 -334.5zM553 322v839h257q148 0 227 -63t79 -185q0 -133 -141 -197q128 -45 128 -206v-45q0 -84 17 -127v-16h-102q-14 34 -14 144v43q0 84 -38 121t-128 37h-187v-345h-98zM651 758h180q80 1 133.5 41 t53.5 112q0 57 -19.5 91.5t-65 51t-123.5 16.5h-159v-312z" />
<glyph unicode="&#xaf;" horiz-adv-x="875" d="M137 1344v97h620v-97h-620z" />
<glyph unicode="&#xb0;" horiz-adv-x="774" d="M143 1227q0 67 33.5 124t90 91t122.5 34q65 0 120.5 -34t88 -91t32.5 -124q0 -68 -32.5 -124.5t-88 -89.5t-120.5 -33q-67 0 -123.5 33t-89.5 89.5t-33 124.5zM233 1227q0 -44 20.5 -79.5t56.5 -56t79 -20.5t77.5 20t54.5 56t20 80q0 45 -20 81.5t-54.5 57t-77.5 20.5 t-78.5 -21t-56.5 -57t-21 -81z" />
<glyph unicode="&#xb1;" horiz-adv-x="1086" d="M85 728v101h414v438h111v-438h391v-101h-391v-439h-111v439h-414zM129 0v102h835v-102h-835z" />
<glyph unicode="&#xb2;" horiz-adv-x="740" d="M76 665zM76 1216q0 69 34.5 125.5t99.5 90t151 33.5q123 0 195 -60.5t72 -165.5q0 -70 -45.5 -134t-139.5 -154l-213 -198h437v-88h-571v76l289 283q73 70 105 120.5t32 93.5q0 64 -41.5 101.5t-117.5 37.5q-88 0 -134.5 -44.5t-46.5 -116.5h-106z" />
<glyph unicode="&#xb3;" horiz-adv-x="740" d="M71 654zM71 885h106q0 -41 24.5 -74t67.5 -51.5t98 -18.5q85 0 132 38t47 105q0 73 -53 107.5t-147 34.5h-78v58v23h78q88 0 136 38t48 97q0 60 -42 97.5t-126 37.5q-74 0 -122.5 -35.5t-48.5 -95.5h-106q0 65 36.5 115t99.5 77t140 27q126 0 200.5 -58t74.5 -163 q0 -57 -38 -104t-107 -71q80 -21 120.5 -69t40.5 -119t-37.5 -122t-102.5 -78t-148 -27q-76 0 -143 25.5t-108.5 77.5t-41.5 128z" />
<glyph unicode="&#xb4;" horiz-adv-x="577" d="M125 1257l191 279h145l-232 -279h-104z" />
<glyph unicode="&#xb6;" horiz-adv-x="974" d="M83 988q0 135 57.5 241t168.5 166.5t266 60.5h227v-1456h-121v520h-106q-155 0 -266 60t-168.5 166t-57.5 242z" />
<glyph unicode="&#xb7;" horiz-adv-x="504" d="M163 717q0 36 23 60t62 24t62.5 -24t23.5 -60q0 -35 -23.5 -58t-62.5 -23t-62 23t-23 58z" />
<glyph unicode="&#xb8;" horiz-adv-x="499" d="M99 -358q82 0 141.5 30.5t59.5 90.5q0 55 -40.5 77.5t-134.5 31.5l28 128h93l-11 -65q72 -10 118.5 -49.5t46.5 -121.5q0 -60 -34.5 -105t-101 -69.5t-158.5 -24.5z" />
<glyph unicode="&#xb9;" horiz-adv-x="740" d="M127 665zM127 1259v90l324 106h13v-790h-105v663z" />
<glyph unicode="&#xba;" horiz-adv-x="923" d="M135 1033v99q0 100 39.5 178t113 122t170.5 44q99 0 172.5 -43.5t112.5 -121.5t39 -179v-99q0 -100 -39 -178t-112 -121.5t-171 -43.5t-172 43.5t-113.5 121.5t-39.5 178zM244 1033q0 -110 54.5 -178.5t161.5 -68.5q104 0 159 69t55 178v99q0 109 -55.5 178.5 t-160.5 69.5q-104 0 -159 -69.5t-55 -178.5v-99z" />
<glyph unicode="&#xbb;" horiz-adv-x="929" d="M116 162l276 389l-276 394h106l294 -385v-13v-6l-294 -379h-106zM116 162zM435 162l276 389l-276 394h106l294 -385v-13v-6l-294 -379h-106z" />
<glyph unicode="&#xbf;" horiz-adv-x="941" d="M88 -11q0 91 32.5 168.5t85 142.5t131.5 138q41 35 61.5 71.5t27 77t6.5 101.5h119q-1 -88 -12.5 -138t-41 -92t-93.5 -106l-21 -21q-62 -63 -96 -105.5t-56.5 -100.5t-22.5 -134q0 -128 68 -198t194 -70q77 0 136 31t92.5 89t34.5 136h119q-1 -114 -51.5 -195.5 t-136.5 -124t-194 -42.5q-120 0 -206 45.5t-131 129t-45 197.5zM402 1022q0 34 22.5 56.5t60.5 22.5t60 -22t22 -57t-22 -58t-60 -23q-37 0 -60 23t-23 58z" />
<glyph unicode="&#xc0;" horiz-adv-x="1280" d="M31 0l550 1456h90h27l551 -1456h-128l-150 408h-662l-150 -408h-128zM31 0zM348 513h584l-292 793zM378 1851h145l191 -279h-109z" />
<glyph unicode="&#xc1;" horiz-adv-x="1280" d="M31 0l550 1456h90h27l551 -1456h-128l-150 408h-662l-150 -408h-128zM31 0zM348 513h584l-292 793zM573 1572l191 279h145l-231 -279h-105z" />
<glyph unicode="&#xc2;" horiz-adv-x="1280" d="M31 0l550 1456h90h27l551 -1456h-128l-150 408h-662l-150 -408h-128zM31 0zM348 513h584l-292 793zM367 1574v12l238 255h76l240 -257v-10h-110l-169 183l-167 -183h-108z" />
<glyph unicode="&#xc3;" horiz-adv-x="1280" d="M31 0l550 1456h90h27l551 -1456h-128l-150 408h-662l-150 -408h-128zM31 0zM310 1593q0 62 26 110.5t70.5 75t99.5 26.5q43 0 74.5 -14.5t75.5 -43.5q36 -26 64 -39t63 -13q47 0 79 34t32 88l90 -6q0 -63 -26 -111.5t-71 -75t-99 -26.5q-49 0 -82 15t-72 44 q-35 26 -61 38.5t-63 12.5q-47 0 -78.5 -32.5t-31.5 -86.5zM348 513h584l-292 793z" />
<glyph unicode="&#xc4;" horiz-adv-x="1280" d="M31 0l550 1456h90h27l551 -1456h-128l-150 408h-662l-150 -408h-128zM31 0zM344 1712q0 35 22 57.5t60 22.5t60.5 -22.5t22.5 -57.5q0 -34 -22.5 -57t-60.5 -23t-60 22.5t-22 57.5zM348 513h584l-292 793zM781 1711q0 35 22.5 58t59.5 23q38 0 60.5 -23t22.5 -58 t-22.5 -57t-60.5 -22q-37 0 -59.5 22.5t-22.5 56.5z" />
<glyph unicode="&#xc5;" horiz-adv-x="1280" d="M31 0l550 1456h90h27l551 -1456h-128l-150 408h-662l-150 -408h-128zM31 0zM348 513h584l-292 793zM451 1715q0 53 25.5 96.5t69.5 69t98 25.5q53 0 97.5 -25.5t70 -69t25.5 -96.5t-25.5 -95.5t-70 -67t-97.5 -24.5q-54 0 -98 24.5t-69.5 67t-25.5 95.5zM527 1715 q0 -48 33.5 -81.5t83.5 -33.5q51 0 83.5 33t32.5 82q0 51 -32.5 85t-83.5 34t-84 -34t-33 -85z" />
<glyph unicode="&#xc6;" horiz-adv-x="1865" d="M18 0l881 1456h84h82h697v-102h-693l23 -545h589v-101h-585l26 -606h702v-102h-733h-85l-16 390h-596l-230 -390h-146zM461 502h524l-35 829z" />
<glyph unicode="&#xc7;" horiz-adv-x="1330" d="M132 637v182q0 196 68 344.5t194 230.5t294 82q154 0 267 -56t179 -162.5t81 -256.5h-123q-47 370 -404 370q-133 0 -231 -68.5t-150 -192.5t-52 -289v-184q0 -161 50 -286.5t146 -196t229 -70.5q190 0 289 91.5t123 278.5h123q-22 -213 -147 -336.5t-340 -136.5l-10 -56 q72 -10 118.5 -49.5t46.5 -121.5q0 -60 -34.5 -105t-101 -69.5t-158.5 -24.5l-7 77q82 0 141.5 30.5t59.5 90.5q0 55 -40.5 77.5t-134.5 31.5l26 120q-151 11 -264.5 95.5t-175.5 229t-62 330.5z" />
<glyph unicode="&#xc8;" horiz-adv-x="1165" d="M185 0v1456h123h777v-105h-777v-548h680v-105h-680v-594h782v-104h-819h-86zM185 0zM355 1856h145l191 -279h-109z" />
<glyph unicode="&#xc9;" horiz-adv-x="1165" d="M185 0v1456h123h777v-105h-777v-548h680v-105h-680v-594h782v-104h-819h-86zM185 0zM550 1577l191 279h145l-231 -279h-105z" />
<glyph unicode="&#xca;" horiz-adv-x="1165" d="M185 0v1456h123h777v-105h-777v-548h680v-105h-680v-594h782v-104h-819h-86zM185 0zM343 1579v12l238 255h76l240 -257v-10h-110l-169 183l-167 -183h-108z" />
<glyph unicode="&#xcb;" horiz-adv-x="1165" d="M185 0v1456h123h777v-105h-777v-548h680v-105h-680v-594h782v-104h-819h-86zM185 0zM321 1717q0 35 22 57.5t60 22.5t60.5 -22.5t22.5 -57.5q0 -34 -22.5 -57t-60.5 -23t-60 22.5t-22 57.5zM758 1716q0 35 22.5 58t59.5 23q38 0 60.5 -23t22.5 -58t-22.5 -57t-60.5 -22 q-37 0 -59.5 22.5t-22.5 56.5z" />
<glyph unicode="&#xcc;" horiz-adv-x="546" d="M9 0zM9 1856h145l191 -279h-109zM212 0v1456h123v-1456h-123z" />
<glyph unicode="&#xcd;" horiz-adv-x="546" d="M204 0zM204 1577l191 279h145l-231 -279h-105zM212 0v1456h123v-1456h-123z" />
<glyph unicode="&#xce;" horiz-adv-x="546" d="M-2 1579v12l238 255h76l240 -257v-10h-110l-169 183l-167 -183h-108zM0 0zM212 0v1456h123v-1456h-123z" />
<glyph unicode="&#xcf;" horiz-adv-x="546" d="M-25 1717q0 35 22 57.5t60 22.5t60.5 -22.5t22.5 -57.5q0 -34 -22.5 -57t-60.5 -23t-60 22.5t-22 57.5zM0 0zM212 0v1456h123v-1456h-123zM412 1716q0 35 22.5 58t59.5 23q38 0 60.5 -23t22.5 -58t-22.5 -57t-60.5 -22q-37 0 -59.5 22.5t-22.5 56.5z" />
<glyph unicode="&#xd0;" horiz-adv-x="1342" d="M34 690v102h151v664h123h284q180 0 321.5 -82t220.5 -232.5t79 -346.5v-134q0 -197 -79 -347t-222 -232t-329 -82h-330h-68v690h-151zM308 104h275q154 0 269 70t177 196t62 291v136q0 166 -62 291.5t-175 194t-262 68.5h-284v-559h337v-102h-337v-586z" />
<glyph unicode="&#xd1;" horiz-adv-x="1455" d="M185 0v1456h124l837 -1246v1246h123v-1456h-124l-836 1246v-1246h-124zM185 0zM394 1593q0 62 26 110.5t70.5 75t99.5 26.5q43 0 74.5 -14.5t75.5 -43.5q36 -26 64 -39t63 -13q47 0 79 34t32 88l90 -6q0 -63 -26 -111.5t-71 -75t-99 -26.5q-49 0 -82 15t-72 44 q-35 26 -61 38.5t-63 12.5q-47 0 -78.5 -32.5t-31.5 -86.5z" />
<glyph unicode="&#xd2;" horiz-adv-x="1387" d="M126 0zM126 650v156q0 201 70.5 353t199 234.5t296.5 82.5q171 0 299.5 -82.5t198.5 -234t70 -353.5v-156q0 -202 -69.5 -353.5t-197.5 -234t-299 -82.5q-168 0 -297 82.5t-200 234.5t-71 353zM249 650q0 -172 54 -298.5t154.5 -195t236.5 -68.5q140 0 240 68t152 194.5 t52 299.5v158q0 172 -53 298t-153.5 194t-239.5 68q-136 0 -236 -68t-153.5 -194.5t-53.5 -297.5v-158zM427 1863h145l191 -279h-109z" />
<glyph unicode="&#xd3;" horiz-adv-x="1387" d="M126 0zM126 650v156q0 201 70.5 353t199 234.5t296.5 82.5q171 0 299.5 -82.5t198.5 -234t70 -353.5v-156q0 -202 -69.5 -353.5t-197.5 -234t-299 -82.5q-168 0 -297 82.5t-200 234.5t-71 353zM249 650q0 -172 54 -298.5t154.5 -195t236.5 -68.5q140 0 240 68t152 194.5 t52 299.5v158q0 172 -53 298t-153.5 194t-239.5 68q-136 0 -236 -68t-153.5 -194.5t-53.5 -297.5v-158zM622 1584l191 279h145l-231 -279h-105z" />
<glyph unicode="&#xd4;" horiz-adv-x="1387" d="M126 0zM126 650v156q0 201 70.5 353t199 234.5t296.5 82.5q171 0 299.5 -82.5t198.5 -234t70 -353.5v-156q0 -202 -69.5 -353.5t-197.5 -234t-299 -82.5q-168 0 -297 82.5t-200 234.5t-71 353zM249 650q0 -172 54 -298.5t154.5 -195t236.5 -68.5q140 0 240 68t152 194.5 t52 299.5v158q0 172 -53 298t-153.5 194t-239.5 68q-136 0 -236 -68t-153.5 -194.5t-53.5 -297.5v-158zM416 1586v12l238 255h76l240 -257v-10h-110l-169 183l-167 -183h-108z" />
<glyph unicode="&#xd5;" horiz-adv-x="1387" d="M126 0zM126 650v156q0 201 70.5 353t199 234.5t296.5 82.5q171 0 299.5 -82.5t198.5 -234t70 -353.5v-156q0 -202 -69.5 -353.5t-197.5 -234t-299 -82.5q-168 0 -297 82.5t-200 234.5t-71 353zM249 650q0 -172 54 -298.5t154.5 -195t236.5 -68.5q140 0 240 68t152 194.5 t52 299.5v158q0 172 -53 298t-153.5 194t-239.5 68q-136 0 -236 -68t-153.5 -194.5t-53.5 -297.5v-158zM359 1604q0 62 26 110.5t70.5 75t99.5 26.5q43 0 74.5 -14.5t75.5 -43.5q36 -26 64 -39t63 -13q47 0 79 34t32 88l90 -6q0 -63 -26 -111.5t-71 -75t-99 -26.5 q-49 0 -82 15t-72 44q-35 26 -61 38.5t-63 12.5q-47 0 -78.5 -32.5t-31.5 -86.5z" />
<glyph unicode="&#xd6;" horiz-adv-x="1387" d="M126 0zM126 650v156q0 201 70.5 353t199 234.5t296.5 82.5q171 0 299.5 -82.5t198.5 -234t70 -353.5v-156q0 -202 -69.5 -353.5t-197.5 -234t-299 -82.5q-168 0 -297 82.5t-200 234.5t-71 353zM249 650q0 -172 54 -298.5t154.5 -195t236.5 -68.5q140 0 240 68t152 194.5 t52 299.5v158q0 172 -53 298t-153.5 194t-239.5 68q-136 0 -236 -68t-153.5 -194.5t-53.5 -297.5v-158zM393 1724q0 35 22 57.5t60 22.5t60.5 -22.5t22.5 -57.5q0 -34 -22.5 -57t-60.5 -23t-60 22.5t-22 57.5zM830 1723q0 35 22.5 58t59.5 23q38 0 60.5 -23t22.5 -58 t-22.5 -57t-60.5 -22q-37 0 -59.5 22.5t-22.5 56.5z" />
<glyph unicode="&#xd7;" horiz-adv-x="1072" d="M94 180l357 365l-343 349l79 81l343 -350l343 350l79 -81l-343 -349l358 -365l-79 -80l-358 365l-357 -365z" />
<glyph unicode="&#xd8;" horiz-adv-x="1387" d="M126 650v156q0 201 70.5 353t199 234.5t296.5 82.5q111 0 205.5 -36t167.5 -104l106 169h104l-149 -236q65 -87 99.5 -205t34.5 -258v-156q0 -202 -69.5 -353.5t-197.5 -234t-299 -82.5q-183 0 -318 97l-101 -161h-104l137 218q-87 89 -134.5 220.5t-47.5 295.5zM249 650 q0 -131 31.5 -236.5t91.5 -178.5l631 1003q-57 64 -135.5 97t-175.5 33q-136 0 -236 -68t-153.5 -194.5t-53.5 -297.5v-158zM436 172q105 -84 258 -84q140 0 240 68t152 194.5t52 299.5v158q0 211 -80 353z" />
<glyph unicode="&#xd9;" horiz-adv-x="1347" d="M163 0zM163 470v986h122v-986q0 -124 49.5 -211t137.5 -131t202 -44q115 0 203 44t137.5 131t49.5 211v986h123v-986q0 -159 -67.5 -269t-184 -165.5t-261.5 -55.5q-148 0 -263.5 55t-181.5 165.5t-66 269.5zM418 1851h145l191 -279h-109z" />
<glyph unicode="&#xda;" horiz-adv-x="1347" d="M163 0zM163 470v986h122v-986q0 -124 49.5 -211t137.5 -131t202 -44q115 0 203 44t137.5 131t49.5 211v986h123v-986q0 -159 -67.5 -269t-184 -165.5t-261.5 -55.5q-148 0 -263.5 55t-181.5 165.5t-66 269.5zM613 1572l191 279h145l-231 -279h-105z" />
<glyph unicode="&#xdb;" horiz-adv-x="1347" d="M163 0zM163 470v986h122v-986q0 -124 49.5 -211t137.5 -131t202 -44q115 0 203 44t137.5 131t49.5 211v986h123v-986q0 -159 -67.5 -269t-184 -165.5t-261.5 -55.5q-148 0 -263.5 55t-181.5 165.5t-66 269.5zM407 1574v12l238 255h76l240 -257v-10h-110l-169 183 l-167 -183h-108z" />
<glyph unicode="&#xdc;" horiz-adv-x="1347" d="M163 0zM163 470v986h122v-986q0 -124 49.5 -211t137.5 -131t202 -44q115 0 203 44t137.5 131t49.5 211v986h123v-986q0 -159 -67.5 -269t-184 -165.5t-261.5 -55.5q-148 0 -263.5 55t-181.5 165.5t-66 269.5zM384 1712q0 35 22 57.5t60 22.5t60.5 -22.5t22.5 -57.5 q0 -34 -22.5 -57t-60.5 -23t-60 22.5t-22 57.5zM821 1711q0 35 22.5 58t59.5 23q38 0 60.5 -23t22.5 -58t-22.5 -57t-60.5 -22q-37 0 -59.5 22.5t-22.5 56.5z" />
<glyph unicode="&#xdd;" horiz-adv-x="1227" d="M24 0zM24 1456h146l441 -794l445 794h143l-526 -907v-549h-123v549zM544 1566l191 279h145l-231 -279h-105z" />
<glyph unicode="&#xde;" horiz-adv-x="1215" d="M183 0v1456h120v-303h324q148 0 253.5 -53.5t160.5 -147.5t55 -214t-55 -214t-160.5 -147t-253.5 -53h-324v-324h-120zM303 426h324q118 0 196.5 44.5t115.5 115t37 150.5q0 83 -37 154.5t-115.5 116t-196.5 44.5h-324v-625z" />
<glyph unicode="&#xdf;" horiz-adv-x="1201" d="M152 0v1128q0 134 43.5 227.5t124.5 141t193 47.5q96 0 174 -36t124 -105.5t46 -165.5q0 -69 -16.5 -117t-48.5 -106q-30 -54 -44.5 -94t-14.5 -95q0 -43 21.5 -79.5t53 -65.5t86.5 -72q65 -51 105.5 -90t68.5 -92t28 -119q0 -103 -52 -177.5t-138 -112.5t-186 -38 q-84 0 -174.5 24.5t-130.5 56.5l33 101q41 -30 115 -55t143 -25q84 0 145.5 30.5t93.5 82t32 113.5q0 46 -22.5 85t-55.5 70t-90 75q-64 51 -103 88t-66 88t-27 114q0 62 16 107t49 105q31 56 46 96.5t15 95.5q0 63 -29.5 111t-79 74.5t-107.5 26.5q-121 0 -186.5 -76.5 t-65.5 -238.5v-1128h-119z" />
<glyph unicode="&#xe0;" horiz-adv-x="1098" d="M101 0zM101 287q0 105 59.5 182.5t171 119t262.5 41.5h221v122q0 117 -72.5 183.5t-206.5 66.5q-82 0 -148.5 -29.5t-104 -79.5t-37.5 -110l-120 1q0 81 53 154.5t148 118.5t214 45q117 0 206 -39.5t138.5 -118.5t49.5 -194v-523q0 -60 8.5 -119t24.5 -95v-13h-128 q-19 53 -24 151q-59 -76 -152.5 -123.5t-213.5 -47.5q-104 0 -183 39.5t-122.5 109.5t-43.5 158zM220 297q0 -59 30 -107t85 -76t128 -28q125 0 218 59.5t134 153.5v239h-205q-122 0 -209.5 -29t-134 -83t-46.5 -129zM315 1535h145l191 -279h-109z" />
<glyph unicode="&#xe1;" horiz-adv-x="1098" d="M101 0zM101 287q0 105 59.5 182.5t171 119t262.5 41.5h221v122q0 117 -72.5 183.5t-206.5 66.5q-82 0 -148.5 -29.5t-104 -79.5t-37.5 -110l-120 1q0 81 53 154.5t148 118.5t214 45q117 0 206 -39.5t138.5 -118.5t49.5 -194v-523q0 -60 8.5 -119t24.5 -95v-13h-128 q-19 53 -24 151q-59 -76 -152.5 -123.5t-213.5 -47.5q-104 0 -183 39.5t-122.5 109.5t-43.5 158zM220 297q0 -59 30 -107t85 -76t128 -28q125 0 218 59.5t134 153.5v239h-205q-122 0 -209.5 -29t-134 -83t-46.5 -129zM510 1256l191 279h145l-231 -279h-105z" />
<glyph unicode="&#xe2;" horiz-adv-x="1098" d="M101 0zM101 287q0 105 59.5 182.5t171 119t262.5 41.5h221v122q0 117 -72.5 183.5t-206.5 66.5q-82 0 -148.5 -29.5t-104 -79.5t-37.5 -110l-120 1q0 81 53 154.5t148 118.5t214 45q117 0 206 -39.5t138.5 -118.5t49.5 -194v-523q0 -60 8.5 -119t24.5 -95v-13h-128 q-19 53 -24 151q-59 -76 -152.5 -123.5t-213.5 -47.5q-104 0 -183 39.5t-122.5 109.5t-43.5 158zM220 297q0 -59 30 -107t85 -76t128 -28q125 0 218 59.5t134 153.5v239h-205q-122 0 -209.5 -29t-134 -83t-46.5 -129zM304 1258v12l238 255h76l240 -257v-10h-110l-169 183 l-167 -183h-108z" />
<glyph unicode="&#xe3;" horiz-adv-x="1098" d="M101 0zM101 287q0 105 59.5 182.5t171 119t262.5 41.5h221v122q0 117 -72.5 183.5t-206.5 66.5q-82 0 -148.5 -29.5t-104 -79.5t-37.5 -110l-120 1q0 81 53 154.5t148 118.5t214 45q117 0 206 -39.5t138.5 -118.5t49.5 -194v-523q0 -60 8.5 -119t24.5 -95v-13h-128 q-19 53 -24 151q-59 -76 -152.5 -123.5t-213.5 -47.5q-104 0 -183 39.5t-122.5 109.5t-43.5 158zM220 297q0 -59 30 -107t85 -76t128 -28q125 0 218 59.5t134 153.5v239h-205q-122 0 -209.5 -29t-134 -83t-46.5 -129zM247 1277q0 62 26 110.5t70.5 75t99.5 26.5 q43 0 74.5 -14.5t75.5 -43.5q36 -26 64 -39t63 -13q47 0 79 34t32 88l90 -6q0 -63 -26 -111.5t-71 -75t-99 -26.5q-49 0 -82 15t-72 44q-35 26 -61 38.5t-63 12.5q-47 0 -78.5 -32.5t-31.5 -86.5z" />
<glyph unicode="&#xe4;" horiz-adv-x="1098" d="M101 0zM101 287q0 105 59.5 182.5t171 119t262.5 41.5h221v122q0 117 -72.5 183.5t-206.5 66.5q-82 0 -148.5 -29.5t-104 -79.5t-37.5 -110l-120 1q0 81 53 154.5t148 118.5t214 45q117 0 206 -39.5t138.5 -118.5t49.5 -194v-523q0 -60 8.5 -119t24.5 -95v-13h-128 q-19 53 -24 151q-59 -76 -152.5 -123.5t-213.5 -47.5q-104 0 -183 39.5t-122.5 109.5t-43.5 158zM220 297q0 -59 30 -107t85 -76t128 -28q125 0 218 59.5t134 153.5v239h-205q-122 0 -209.5 -29t-134 -83t-46.5 -129zM281 1396q0 35 22 57.5t60 22.5t60.5 -22.5t22.5 -57.5 q0 -34 -22.5 -57t-60.5 -23t-60 22.5t-22 57.5zM718 1395q0 35 22.5 58t59.5 23q38 0 60.5 -23t22.5 -58t-22.5 -57t-60.5 -22q-37 0 -59.5 22.5t-22.5 56.5z" />
<glyph unicode="&#xe5;" horiz-adv-x="1098" d="M101 0zM101 287q0 105 59.5 182.5t171 119t262.5 41.5h221v122q0 117 -72.5 183.5t-206.5 66.5q-82 0 -148.5 -29.5t-104 -79.5t-37.5 -110l-120 1q0 81 53 154.5t148 118.5t214 45q117 0 206 -39.5t138.5 -118.5t49.5 -194v-523q0 -60 8.5 -119t24.5 -95v-13h-128 q-19 53 -24 151q-59 -76 -152.5 -123.5t-213.5 -47.5q-104 0 -183 39.5t-122.5 109.5t-43.5 158zM220 297q0 -59 30 -107t85 -76t128 -28q125 0 218 59.5t134 153.5v239h-205q-122 0 -209.5 -29t-134 -83t-46.5 -129zM388 1400q0 53 25.5 96.5t69.5 69t98 25.5 q53 0 97.5 -25.5t70 -69t25.5 -96.5t-25.5 -95.5t-70 -67t-97.5 -24.5q-54 0 -98 24.5t-69.5 67t-25.5 95.5zM464 1400q0 -48 33.5 -81.5t83.5 -33.5q51 0 83.5 33t32.5 82q0 51 -32.5 85t-83.5 34t-84 -34t-33 -85z" />
<glyph unicode="&#xe6;" horiz-adv-x="1732" d="M86 294q0 104 50 180.5t148.5 117.5t240.5 41h256v87q0 134 -64.5 207t-188.5 73q-90 0 -157 -31t-102.5 -84t-35.5 -119l-119 12q0 93 51.5 167t145.5 115.5t217 41.5q126 0 215 -54t128 -158q61 100 156 156.5t209 55.5q133 0 228 -56t145 -160.5t50 -247.5v-100h-757 v-28q0 -123 39 -219.5t120.5 -153t203.5 -56.5q186 0 324 119l47 -88q-139 -132 -371 -132q-135 0 -235.5 54t-161.5 153q-32 -54 -90 -100.5t-144 -76.5t-193 -30q-113 0 -192.5 38.5t-121 109.5t-41.5 166zM206 290q0 -96 65 -153t187 -57q65 0 129.5 23t115.5 59t78 73 v301h-254q-104 0 -176.5 -33.5t-108.5 -89t-36 -123.5zM905 636h634v32q0 95 -33 170t-101 118.5t-169 43.5q-92 0 -163 -47t-113.5 -129.5t-54.5 -187.5z" />
<glyph unicode="&#xe7;" horiz-adv-x="1056" d="M95 520v42q0 154 53 276.5t157 193t250 70.5q116 0 209 -47t148 -134.5t60 -202.5h-114q-5 86 -45.5 149.5t-108 98t-149.5 34.5q-117 0 -193.5 -59.5t-112 -158.5t-35.5 -220v-42q0 -122 35 -220.5t112 -158t196 -59.5q77 0 143.5 29.5t109 86.5t48.5 137h114 q-5 -96 -57 -174.5t-138 -125.5t-189 -54l-9 -56q72 -10 118.5 -49.5t46.5 -121.5q0 -60 -34.5 -105t-101 -69.5t-158.5 -24.5l-7 77q82 0 141.5 30.5t59.5 90.5q0 55 -40.5 77.5t-134.5 31.5l27 121q-129 15 -219 88t-136 189t-46 260z" />
<glyph unicode="&#xe8;" horiz-adv-x="1059" d="M90 0zM90 511v43q0 162 63.5 287t170 193t230.5 68q134 0 231 -63t147 -175t50 -257v-73h-772v-23q0 -119 47 -217.5t131 -155.5t192 -57q97 0 171 35.5t132 112.5l76 -57q-59 -87 -153.5 -139.5t-230.5 -52.5q-139 0 -249.5 68t-173 189t-62.5 274zM215 636h647v13 q-2 94 -37.5 174t-104.5 128.5t-166 48.5q-90 0 -162.5 -45t-118.5 -127.5t-58 -191.5zM302 1535h145l191 -279h-109z" />
<glyph unicode="&#xe9;" horiz-adv-x="1059" d="M90 0zM90 511v43q0 162 63.5 287t170 193t230.5 68q134 0 231 -63t147 -175t50 -257v-73h-772v-23q0 -119 47 -217.5t131 -155.5t192 -57q97 0 171 35.5t132 112.5l76 -57q-59 -87 -153.5 -139.5t-230.5 -52.5q-139 0 -249.5 68t-173 189t-62.5 274zM215 636h647v13 q-2 94 -37.5 174t-104.5 128.5t-166 48.5q-90 0 -162.5 -45t-118.5 -127.5t-58 -191.5zM497 1256l191 279h145l-231 -279h-105z" />
<glyph unicode="&#xea;" horiz-adv-x="1059" d="M90 0zM90 511v43q0 162 63.5 287t170 193t230.5 68q134 0 231 -63t147 -175t50 -257v-73h-772v-23q0 -119 47 -217.5t131 -155.5t192 -57q97 0 171 35.5t132 112.5l76 -57q-59 -87 -153.5 -139.5t-230.5 -52.5q-139 0 -249.5 68t-173 189t-62.5 274zM215 636h647v13 q-2 94 -37.5 174t-104.5 128.5t-166 48.5q-90 0 -162.5 -45t-118.5 -127.5t-58 -191.5zM290 1258v12l238 255h76l240 -257v-10h-110l-169 183l-167 -183h-108z" />
<glyph unicode="&#xeb;" horiz-adv-x="1059" d="M90 0zM90 511v43q0 162 63.5 287t170 193t230.5 68q134 0 231 -63t147 -175t50 -257v-73h-772v-23q0 -119 47 -217.5t131 -155.5t192 -57q97 0 171 35.5t132 112.5l76 -57q-59 -87 -153.5 -139.5t-230.5 -52.5q-139 0 -249.5 68t-173 189t-62.5 274zM215 636h647v13 q-2 94 -37.5 174t-104.5 128.5t-166 48.5q-90 0 -162.5 -45t-118.5 -127.5t-58 -191.5zM268 1396q0 35 22 57.5t60 22.5t60.5 -22.5t22.5 -57.5q0 -34 -22.5 -57t-60.5 -23t-60 22.5t-22 57.5zM705 1395q0 35 22.5 58t59.5 23q38 0 60.5 -23t22.5 -58t-22.5 -57t-60.5 -22 q-37 0 -59.5 22.5t-22.5 56.5z" />
<glyph unicode="&#xec;" horiz-adv-x="456" d="M-34 1523h145l191 -279h-109zM0 0zM168 0v1082h120v-1082h-120z" />
<glyph unicode="&#xed;" horiz-adv-x="456" d="M162 0zM162 1244l191 279h145l-231 -279h-105zM168 0v1082h120v-1082h-120z" />
<glyph unicode="&#xee;" horiz-adv-x="456" d="M-45 1246v12l238 255h76l240 -257v-10h-110l-169 183l-167 -183h-108zM0 0zM168 0v1082h120v-1082h-120z" />
<glyph unicode="&#xef;" horiz-adv-x="456" d="M-68 1384q0 35 22 57.5t60 22.5t60.5 -22.5t22.5 -57.5q0 -34 -22.5 -57t-60.5 -23t-60 22.5t-22 57.5zM0 0zM168 0v1082h120v-1082h-120zM369 1383q0 35 22.5 58t59.5 23q38 0 60.5 -23t22.5 -58t-22.5 -57t-60.5 -22q-37 0 -59.5 22.5t-22.5 56.5z" />
<glyph unicode="&#xf0;" horiz-adv-x="1192" d="M150 466q0 153 54 265.5t153.5 173t230.5 60.5q98 0 185.5 -38t146.5 -105q-44 254 -210 419l-226 -140l-50 74l206 128q-137 107 -343 172l38 104q247 -74 409 -212l195 121l51 -73l-179 -111q244 -255 244 -680v-89q0 -162 -56.5 -288.5t-156.5 -196.5t-226 -70 q-135 0 -241 64.5t-165.5 175.5t-59.5 246zM270 466q0 -97 41.5 -185t121 -142.5t187.5 -54.5q95 0 166.5 58t110.5 160.5t39 232.5v91q0 19 -2 57q-35 75 -118 126.5t-206 51.5q-112 0 -188 -50t-114 -139t-38 -206z" />
<glyph unicode="&#xf1;" horiz-adv-x="1126" d="M156 0v1082h115l4 -183q58 95 149 149t204 54q168 0 256.5 -95t88.5 -302v-705h-120v705q0 160 -65 227t-190 67q-117 0 -200 -73.5t-122 -182.5v-743h-120zM156 0zM243 1276q0 62 26 110.5t70.5 75t99.5 26.5q43 0 74.5 -14.5t75.5 -43.5q36 -26 64 -39t63 -13 q47 0 79 34t32 88l90 -6q0 -63 -26 -111.5t-71 -75t-99 -26.5q-49 0 -82 15t-72 44q-35 26 -61 38.5t-63 12.5q-47 0 -78.5 -32.5t-31.5 -86.5z" />
<glyph unicode="&#xf2;" horiz-adv-x="1148" d="M91 0zM91 525v32q0 157 60 281t169.5 194t252.5 70q144 0 254 -70t170 -194t60 -281v-32q0 -157 -60 -281t-169 -194t-253 -70t-254 70t-170 194t-60 281zM211 525q0 -121 42.5 -222t125 -161t196.5 -60q113 0 195 60t124.5 161t42.5 222v32q0 119 -43 220t-125.5 162 t-195.5 61t-195 -61t-124.5 -162t-42.5 -220v-32zM307 1534h145l191 -279h-109z" />
<glyph unicode="&#xf3;" horiz-adv-x="1148" d="M91 0zM91 525v32q0 157 60 281t169.5 194t252.5 70q144 0 254 -70t170 -194t60 -281v-32q0 -157 -60 -281t-169 -194t-253 -70t-254 70t-170 194t-60 281zM211 525q0 -121 42.5 -222t125 -161t196.5 -60q113 0 195 60t124.5 161t42.5 222v32q0 119 -43 220t-125.5 162 t-195.5 61t-195 -61t-124.5 -162t-42.5 -220v-32zM502 1255l191 279h145l-231 -279h-105z" />
<glyph unicode="&#xf4;" horiz-adv-x="1148" d="M91 0zM91 525v32q0 157 60 281t169.5 194t252.5 70q144 0 254 -70t170 -194t60 -281v-32q0 -157 -60 -281t-169 -194t-253 -70t-254 70t-170 194t-60 281zM211 525q0 -121 42.5 -222t125 -161t196.5 -60q113 0 195 60t124.5 161t42.5 222v32q0 119 -43 220t-125.5 162 t-195.5 61t-195 -61t-124.5 -162t-42.5 -220v-32zM295 1257v12l238 255h76l240 -257v-10h-110l-169 183l-167 -183h-108z" />
<glyph unicode="&#xf5;" horiz-adv-x="1148" d="M91 0zM91 525v32q0 157 60 281t169.5 194t252.5 70q144 0 254 -70t170 -194t60 -281v-32q0 -157 -60 -281t-169 -194t-253 -70t-254 70t-170 194t-60 281zM211 525q0 -121 42.5 -222t125 -161t196.5 -60q113 0 195 60t124.5 161t42.5 222v32q0 119 -43 220t-125.5 162 t-195.5 61t-195 -61t-124.5 -162t-42.5 -220v-32zM239 1276q0 62 26 110.5t70.5 75t99.5 26.5q43 0 74.5 -14.5t75.5 -43.5q36 -26 64 -39t63 -13q47 0 79 34t32 88l90 -6q0 -63 -26 -111.5t-71 -75t-99 -26.5q-49 0 -82 15t-72 44q-35 26 -61 38.5t-63 12.5 q-47 0 -78.5 -32.5t-31.5 -86.5z" />
<glyph unicode="&#xf6;" horiz-adv-x="1148" d="M91 0zM91 525v32q0 157 60 281t169.5 194t252.5 70q144 0 254 -70t170 -194t60 -281v-32q0 -157 -60 -281t-169 -194t-253 -70t-254 70t-170 194t-60 281zM211 525q0 -121 42.5 -222t125 -161t196.5 -60q113 0 195 60t124.5 161t42.5 222v32q0 119 -43 220t-125.5 162 t-195.5 61t-195 -61t-124.5 -162t-42.5 -220v-32zM273 1395q0 35 22 57.5t60 22.5t60.5 -22.5t22.5 -57.5q0 -34 -22.5 -57t-60.5 -23t-60 22.5t-22 57.5zM710 1394q0 35 22.5 58t59.5 23q38 0 60.5 -23t22.5 -58t-22.5 -57t-60.5 -22q-37 0 -59.5 22.5t-22.5 56.5z" />
<glyph unicode="&#xf7;" horiz-adv-x="1164" d="M72 644v117h998v-117h-998zM495 292q0 36 23 59.5t62 23.5t62.5 -24t23.5 -59t-23.5 -58.5t-62.5 -23.5t-62 23.5t-23 58.5zM495 1088q0 36 23 60t62 24t62.5 -24t23.5 -60q0 -35 -23.5 -58t-62.5 -23t-62 23t-23 58z" />
<glyph unicode="&#xf8;" horiz-adv-x="1141" d="M89 525v32q0 157 60 281t169.5 194t252.5 70q117 0 215 -48l78 160h93l-100 -204q94 -72 146 -189.5t52 -263.5v-32q0 -157 -59.5 -281t-169 -194t-253.5 -70q-110 0 -200 41l-79 -161h-93l99 203q-100 70 -155.5 190.5t-55.5 271.5zM209 525q0 -112 36 -207t105 -155 l388 795q-73 42 -167 42q-113 0 -195 -61t-124.5 -162t-42.5 -220v-32zM420 116q68 -34 153 -34q113 0 195 60t124.5 161t42.5 222v32q0 105 -33 196.5t-96 152.5z" />
<glyph unicode="&#xf9;" horiz-adv-x="1125" d="M152 0zM152 390v692h120v-694q0 -162 68.5 -233t181.5 -71q136 0 216.5 57.5t111.5 156.5v784h120v-1082h-115l-3 137q-107 -157 -344 -157q-168 0 -262 98.5t-94 311.5zM310 1536h145l191 -279h-109z" />
<glyph unicode="&#xfa;" horiz-adv-x="1125" d="M152 0zM152 390v692h120v-694q0 -162 68.5 -233t181.5 -71q136 0 216.5 57.5t111.5 156.5v784h120v-1082h-115l-3 137q-107 -157 -344 -157q-168 0 -262 98.5t-94 311.5zM505 1257l191 279h145l-231 -279h-105z" />
<glyph unicode="&#xfb;" horiz-adv-x="1125" d="M152 0zM152 390v692h120v-694q0 -162 68.5 -233t181.5 -71q136 0 216.5 57.5t111.5 156.5v784h120v-1082h-115l-3 137q-107 -157 -344 -157q-168 0 -262 98.5t-94 311.5zM298 1259v12l238 255h76l240 -257v-10h-110l-169 183l-167 -183h-108z" />
<glyph unicode="&#xfc;" horiz-adv-x="1125" d="M152 0zM152 390v692h120v-694q0 -162 68.5 -233t181.5 -71q136 0 216.5 57.5t111.5 156.5v784h120v-1082h-115l-3 137q-107 -157 -344 -157q-168 0 -262 98.5t-94 311.5zM275 1397q0 35 22 57.5t60 22.5t60.5 -22.5t22.5 -57.5q0 -34 -22.5 -57t-60.5 -23t-60 22.5 t-22 57.5zM712 1396q0 35 22.5 58t59.5 23q38 0 60.5 -23t22.5 -58t-22.5 -57t-60.5 -22q-37 0 -59.5 22.5t-22.5 56.5z" />
<glyph unicode="&#xfd;" horiz-adv-x="974" d="M33 0zM33 1082h130l337 -909l315 909h129l-458 -1256q-26 -70 -58.5 -125t-93 -96.5t-151.5 -41.5q-19 0 -48.5 4t-43.5 9v100q10 -3 29.5 -5t31.5 -2q94 0 147.5 47.5t88.5 148.5l53 144zM445 1257l191 279h145l-231 -279h-105z" />
<glyph unicode="&#xfe;" horiz-adv-x="1151" d="M160 -416v1952h119v-604q57 82 141.5 126t195.5 44q131 0 224.5 -67.5t142 -191.5t48.5 -292v-21q0 -162 -49 -286.5t-142 -194t-221 -69.5q-113 0 -198 40.5t-142 116.5v-553h-119zM279 271q43 -88 120 -138.5t192 -50.5q106 0 177.5 58t107 159.5t35.5 230.5v21 q0 129 -35.5 230t-107.5 159t-179 58q-119 0 -194.5 -57t-115.5 -149v-521z" />
<glyph unicode="&#xff;" horiz-adv-x="974" d="M33 0zM33 1082h130l337 -909l315 909h129l-458 -1256q-26 -70 -58.5 -125t-93 -96.5t-151.5 -41.5q-19 0 -48.5 4t-43.5 9v100q10 -3 29.5 -5t31.5 -2q94 0 147.5 47.5t88.5 148.5l53 144zM215 1397q0 35 22 57.5t60 22.5t60.5 -22.5t22.5 -57.5q0 -34 -22.5 -57 t-60.5 -23t-60 22.5t-22 57.5zM652 1396q0 35 22.5 58t59.5 23q38 0 60.5 -23t22.5 -58t-22.5 -57t-60.5 -22q-37 0 -59.5 22.5t-22.5 56.5z" />
<glyph unicode="&#x152;" horiz-adv-x="1913" d="M108 576v304q0 175 67.5 310t189.5 210.5t279 75.5q140 0 313 -20h62h777v-105h-777v-548h680v-105h-680v-594h782v-104h-819h-25q-96 -10 -167 -15.5t-144 -5.5q-157 0 -279.5 75.5t-190.5 211.5t-68 310zM228 576q0 -150 51.5 -262t146 -172.5t220.5 -60.5 q130 0 250 14v1266q-121 14 -252 14q-126 0 -220 -59.5t-145 -170.5t-51 -263v-306z" />
<glyph unicode="&#x153;" horiz-adv-x="1892" d="M95 525v32q0 157 59 281t167 194t251 70q147 0 257 -72t167 -200q59 126 166.5 199.5t233.5 72.5q133 0 229.5 -57t147.5 -161.5t51 -243.5v-102h-765v-28q0 -119 44 -217t124.5 -155t184.5 -57q111 0 190 31t135 89l51 -83q-60 -63 -153 -100.5t-223 -37.5 q-137 0 -247 72t-170 197q-57 -126 -166.5 -197.5t-254.5 -71.5q-144 0 -252.5 70t-167.5 193.5t-59 281.5zM214 525q0 -122 41.5 -223t123 -161t195.5 -60q113 0 194 60t122.5 161t41.5 223v32q0 119 -42 220.5t-123 162t-195 60.5q-113 0 -194 -60.5t-122.5 -162 t-41.5 -220.5v-32zM1064 640h640v29q0 92 -36.5 167.5t-106 119.5t-165.5 44q-88 0 -159 -47t-115.5 -128.5t-57.5 -184.5z" />
<glyph unicode="&#x2c6;" horiz-adv-x="880" d="M161 1259v12l238 255h76l240 -257v-10h-110l-169 183l-167 -183h-108z" />
<glyph unicode="&#x2dc;" horiz-adv-x="892" d="M107 1268q0 62 25.5 110.5t70 75t99.5 26.5q43 0 74.5 -14.5t75.5 -43.5q39 -26 66 -39t62 -13q47 0 78.5 34t31.5 88l90 -6q0 -63 -26 -111.5t-71 -75t-99 -26.5q-49 0 -82 15t-72 44q-35 26 -61 38.5t-62 12.5q-48 0 -79.5 -32.5t-31.5 -86.5z" />
<glyph unicode="&#x2000;" horiz-adv-x="953" />
<glyph unicode="&#x2001;" horiz-adv-x="1906" />
<glyph unicode="&#x2002;" horiz-adv-x="953" />
<glyph unicode="&#x2003;" horiz-adv-x="1906" />
<glyph unicode="&#x2004;" horiz-adv-x="635" />
<glyph unicode="&#x2005;" horiz-adv-x="476" />
<glyph unicode="&#x2006;" horiz-adv-x="317" />
<glyph unicode="&#x2007;" horiz-adv-x="317" />
<glyph unicode="&#x2008;" horiz-adv-x="238" />
<glyph unicode="&#x2009;" horiz-adv-x="381" />
<glyph unicode="&#x200a;" horiz-adv-x="105" />
<glyph unicode="&#x2010;" horiz-adv-x="586" d="M49 592v102h479v-102h-479z" />
<glyph unicode="&#x2011;" horiz-adv-x="586" d="M49 592v102h479v-102h-479z" />
<glyph unicode="&#x2012;" horiz-adv-x="586" d="M49 592v102h479v-102h-479z" />
<glyph unicode="&#x2013;" horiz-adv-x="1334" d="M159 687v102h1002v-102h-1002z" />
<glyph unicode="&#x2014;" horiz-adv-x="1580" d="M127 687v102h1336v-102h-1336z" />
<glyph unicode="&#x2018;" horiz-adv-x="365" d="M99 1122v112q0 91 37.5 176.5t102.5 144.5l71 -52q-47 -64 -69.5 -127t-22.5 -140v-114h-119z" />
<glyph unicode="&#x2019;" horiz-adv-x="365" d="M63 1152q47 63 69.5 126t22.5 140v118h119v-115q0 -91 -37.5 -176.5t-102.5 -144.5z" />
<glyph unicode="&#x201a;" horiz-adv-x="354" d="M42 -180q47 64 69 127t22 140v119h120v-116q0 -91 -37.5 -177t-102.5 -145z" />
<glyph unicode="&#x201c;" horiz-adv-x="612" d="M100 1122v112q0 91 37.5 176.5t102.5 144.5l71 -52q-47 -64 -69.5 -127t-22.5 -140v-114h-119zM100 1122zM351 1122v112q0 91 37.5 176.5t102.5 144.5l71 -52q-47 -64 -69.5 -127t-22.5 -140v-114h-119z" />
<glyph unicode="&#x201d;" horiz-adv-x="617" d="M69 1100zM69 1152q47 63 69.5 126t22.5 140v118h119v-115q0 -91 -37.5 -176.5t-102.5 -144.5zM313 1152q47 63 69.5 126t22.5 140v118h119v-115q0 -91 -37.5 -176.5t-102.5 -144.5z" />
<glyph unicode="&#x201e;" horiz-adv-x="594" d="M42 -189q47 66 69 131t22 145v150h120v-147q0 -94 -37.5 -182t-102.5 -149zM275 -189q48 66 70 131t22 145v150h120v-147q0 -94 -37.5 -182t-103.5 -149z" />
<glyph unicode="&#x2022;" horiz-adv-x="663" d="M147 717v35q0 79 50 129t134 50q57 0 99.5 -23t65 -63.5t22.5 -92.5v-35q0 -78 -50.5 -127t-135.5 -49q-84 0 -134.5 49t-50.5 127z" />
<glyph unicode="&#x2026;" horiz-adv-x="1313" d="M167 0zM167 73q0 36 22.5 59.5t61.5 23.5t62.5 -23.5t23.5 -59.5q0 -35 -23.5 -58.5t-62.5 -23.5t-61.5 23t-22.5 59zM577 73q0 36 22.5 59.5t61.5 23.5t62.5 -23.5t23.5 -59.5q0 -35 -23.5 -58.5t-62.5 -23.5t-61.5 23t-22.5 59zM969 73q0 36 22.5 59.5t61.5 23.5 t62.5 -23.5t23.5 -59.5q0 -35 -23.5 -58.5t-62.5 -23.5t-61.5 23t-22.5 59z" />
<glyph unicode="&#x202f;" horiz-adv-x="381" />
<glyph unicode="&#x2039;" horiz-adv-x="609" d="M108 547v13v6l295 379h106l-276 -389l276 -388h-106z" />
<glyph unicode="&#x203a;" horiz-adv-x="609" d="M98 162l276 389l-276 394h106l294 -385v-13v-6l-294 -379h-106z" />
<glyph unicode="&#x205f;" horiz-adv-x="476" />
<glyph unicode="&#x20ac;" d="M84 563v89h191v165h-191v89h191v2q0 184 67 311.5t188 192t281 64.5q104 0 231 -31l-10 -108q-110 35 -220 35q-195 0 -304 -116.5t-109 -345.5v-4h419v-89h-419v-165h419v-89h-419v-16q0 -151 50.5 -255t143.5 -156.5t220 -52.5q115 0 219 34l10 -107q-110 -31 -230 -31 q-160 0 -281 64.5t-188.5 192t-67.5 311.5v16h-191z" />
<glyph unicode="&#x25fc;" horiz-adv-x="1080" d="M0 0v1080h1080v-1080h-1080z" />
<glyph unicode="&#xfb01;" horiz-adv-x="1101" d="M49 984v98h179v115q0 115 43.5 195.5t124 122.5t192.5 42q133 0 275 -59l-19 -103q-58 26 -116.5 39.5t-132.5 13.5q-121 0 -184 -64t-63 -187v-115h254v-98h-254v-984h-120v984h-179zM809 0v1082h120v-1082h-120z" />
<glyph unicode="&#xfb02;" horiz-adv-x="1115" d="M63 984v98h180v135q0 163 85.5 251.5t240.5 88.5q116 0 374 -61v-1496h-120v1422q-153 30 -246 30q-102 0 -158.5 -61.5t-56.5 -173.5v-135h259v-98h-259v-984h-119v984h-180z" />
<glyph unicode="&#xfb03;" horiz-adv-x="1696" d="M63 984v98h180v135q0 163 84.5 251.5t234.5 88.5q68 0 128 -17l-9 -100q-50 12 -110 12q-98 0 -153.5 -61.5t-55.5 -173.5v-135h314h147v115q0 115 43.5 195.5t124 122.5t192.5 42q133 0 275 -59l-19 -103q-58 26 -116.5 39.5t-132.5 13.5q-121 0 -184 -64t-63 -187v-115 h254v-98h-254v-984h-120v984h-179h-282v-984h-119v984h-180zM1404 0v1082h119v-1082h-119z" />
<glyph unicode="&#xfb04;" horiz-adv-x="1696" d="M63 984v98h180v135q0 163 84.5 251.5t234.5 88.5q68 0 128 -17l-9 -100q-50 12 -110 12q-98 0 -153.5 -61.5t-55.5 -173.5v-135h319h142v135q0 163 86 251.5t241 88.5q117 0 373 -61v-1496h-119v1422q-153 30 -246 30q-102 0 -158.5 -61.5t-56.5 -173.5v-135h258v-98 h-258v-984h-120v984h-179h-282v-984h-119v984h-180z" />
</font>
</defs>
</svg>
